<svg id="bottle-large" xmlns="http://www.w3.org/2000/svg" width="156.949" height="573.467" viewBox="0 0 156.949 573.467">
  <path id="Path_103857" data-name="Path 103857" d="M182.95,615.061c28.047,0,58.575-4.425,67.781-9.613,15.373-8.685,10.885-42.534,6.62-55.819-2.992-9.378-9.612-25.324-9.585-58.5.033-35.6,11.741-104.48,12.264-108.753.876-7.125,2.625-14.228-1.273-15.84,4.781-3.539.953-91.364-7.41-94.728,4.231,0,2.732-9.839,1.839-16.613-1.606-12.433-12.634-41.728-22.1-73.5-4.218-14.185-10.845-35.578-13.007-51.434-2.016-14.719-1.576-33.5-1.576-41.655,2.812-2.793,3.9-4.054,3.772-8.459-.12-4.594-6.014-15.787-6.014-17.386a6.457,6.457,0,0,1,2.136-5.42c2.3-2.087,2.169-5.726,1.179-8.711-1.206-3.606-5.684-4.687-8.263-5.308-2.349-.567-14.16-1.732-26.364-1.732s-24,1.164-26.364,1.732c-2.572.62-7.05,1.7-8.256,5.308-1,2.986-1.119,6.625,1.186,8.711a6.437,6.437,0,0,1,2.136,5.42c0,1.6-5.9,12.791-6.02,17.386-.127,4.405.96,5.666,3.771,8.459,0,8.15.433,26.936-1.576,41.655-2.156,15.856-8.782,37.249-13,51.434-9.472,31.769-20.5,61.064-22.106,73.5-.89,6.774-2.392,16.613,1.839,16.613-8.369,3.364-12.191,91.188-7.41,94.728-3.891,1.612-2.156,8.714-1.273,15.84.53,4.273,12.231,73.152,12.264,108.753.033,33.176-6.594,49.122-9.592,58.5-4.251,13.286-8.752,47.135,6.62,55.819,9.206,5.188,39.741,9.613,67.781,9.613" transform="translate(-104.478 -41.594)" fill="#fff" fill-rule="evenodd"/>
  <path id="Union_17" data-name="Union 17" d="M37.364,75.678c-6.831-11.647-17.488-10.244-24.415-8.842-3,.606-5.3,1.214-6.284.76C.622,64.759-1.151,50.73.7,36.436c1.038-8.143,3.857-18.6,7.608-25.928,2.932-5.72,6.936-9.056,8.82-8.051,1.593.84,1.953,4.047,1.539,6.158-.8,4.217-2.471,7.77-3.826,7.375-1.644-.472-.432-6.983,2.21-7.816.412-1.011.536-2.22-.665-2.583-1.545-.495-3.641,2.39-5.867,6.517-2.808,5.228-5.727,16.4-6.663,25C2.109,53.308,3.2,62.784,7.945,64.63c2.787,1.09,6.442-.281,11.325-1.652a43.075,43.075,0,0,1,20.084-1.433c12.963,2.279,24.663,15.328,25,16.266C59.041,73.479,41.725,65.748,37.364,75.678ZM76.9,74.361c-6.845-3.506-9.081-13.987-6.554-24.134a90.7,90.7,0,0,1,22.74-41.15C98.9,2.9,106.291-.159,109.729.006a7.5,7.5,0,0,1,6.649,3.929,10.023,10.023,0,0,1,1.647-.456c4.9-.9,10.131,3.539,14.162,6.607-.723,1.884-1.459,3.975-2.168,6.22-3.885-3.975-7.51-10.267-11.55-10.074a6.513,6.513,0,0,0-1.119.165c.948,3.769.313,8.522-1,12.389-2.1,6.146-5.909,10.814-9.4,9.638-5.92-2-1.5-19.112,7.976-23.891a2.924,2.924,0,0,0-2.977-1.021c-3.913.686-9.861,5.7-14.108,11.678-4.237,5.955-17.327,25.188-17.892,43.885-.119,4.011,1.815,8.837,5.531,9.631C90.92,69.863,96.551,61.3,99.307,56.069c3.1-5.888,5.9-17.1,2.568-18.179-3.684-1.194-7.782,8.285-7.782,13.031-3.575,2.016-5.885,5.029-8.425,8.46,1.119-15.761,7.495-24.654,13.79-25.59,4.93-.732,6.413,4.973,5.447,11.4a43.158,43.158,0,0,1-3.681,11.881,52.919,52.919,0,0,1-4.732,8.045c-3.786,5.016-9.4,10.313-15.228,10.312A9.472,9.472,0,0,1,76.9,74.361Zm31.064-48.038c2.793.387,5.223-4.037,6.931-8.494,1.05-2.753,1.8-7.672,1.05-10.976C108.394,10.171,103.234,25.671,107.962,26.323Zm-2.24,46.8c-4.053-.853-4.949-9.156,1.832-24.876,2.122-4.89,8.144-15.405,13.351-13.167,3.43,1.482,2.269,9.837,1.049,14.936a6.714,6.714,0,0,0,2.238-.936c.725-3.642,1.574-7.452,2.433-11.466,3.888-18.112,10.109-36.577,13.6-36.254,1.794.173,2.129,3.395,1.989,8.332a7.774,7.774,0,0,1-1.3,1.108c.3-3.5.241-6.171-.346-6.429-2.213-1-7.827,21.855-11.1,39.4a70.712,70.712,0,0,0,9.058-18.991c.352-1.255.684-2.714.99-4.253a9.73,9.73,0,0,0,1.521-.673c-.322,1.712-.718,3.506-1.2,5.256-1.609,5.926-5.743,16.034-10.958,22.079-1.577,8.994-2.367,15.8-1.445,16.106,2,.663,4.63-9.5,6.235-14.242,1.855-5.447,7.876-21.262,11.145-12.68a12,12,0,0,0,.445-1.7l2.7-.232c-.743,4.622-3.637,17.462-5.2,24.079-.277,1.145.014,1.918.213,1.9.5-.052,2.754-3.189,4.734-10.273l1.176-.026c-1.467,5.968-6.213,18.305-9.195,17.078-1.09-.456-1.418-3.3-1.281-5.269-.813,2.369-3.653,7.228-5.419,6.357-1.119-.549-2.223-2.008-1.99-6.924-1.246,3.418-3.867,9.708-6.421,8.78-3.35-1.212-2.692-8.821-.8-18.846a8.73,8.73,0,0,1-2.316.8c-1.849,6.651-7.37,21.153-14.62,21.152A5.522,5.522,0,0,1,105.721,73.118Zm5.627-8.1c2.513.5,6.971-7.055,8.543-13.134-2.474-.3-4.525-3.552-5.249-5.777C108.791,56.891,108.917,64.537,111.348,65.016Zm29.564-24.074a62.624,62.624,0,0,0-4.287,12.68c-.643,3.836-1.041,7.135-.239,7.383,1.109.327,2.2-2.887,3.026-5.125,1.322-3.637,4.815-17.485,4.815-17.485-.117-.7-.35-1.118-.707-1.118C142.962,37.277,142.1,38.313,140.912,40.942Zm-24.529,3.591c.228,1.392,1.411,5.223,4.1,5.38.928-3.635,2.406-10.3.591-11.623a1.322,1.322,0,0,0-.8-.249C118.461,38.041,115.821,41.115,116.383,44.533Zm30.629,17.4c-.013-2.284.963-3.784,2.09-4.114,1.108-.322,1.951.616,1.969,2.9s-.791,3.764-1.9,4.1a1.569,1.569,0,0,1-.426.062C147.8,64.877,147.027,63.925,147.013,61.936Zm2.09-3.39c-.836.245-1.5,1.552-1.479,3.217s.7,2.573,1.54,2.317v.013c.81-.237,1.5-1.557,1.478-3.215,0-1.486-.574-2.369-1.284-2.369A.933.933,0,0,0,149.1,58.546Zm-.823,1.072.85-.245c.582-.18.929.013.937.9.008.714-.233,1.049-.53,1.175l.59,1.531-.575.16-.533-1.48-.231.067.013,1.632-.492.147Zm.831.415-.337.1,0,.938.43-.126c.22-.064.341-.178.341-.606,0-.27-.113-.339-.244-.339A.731.731,0,0,0,149.111,60.033ZM47.98,54.759c-1.686-.8-2.21-3.7-2.078-6.094-2.155,2.977-5.59,7.223-9.486,6.06-2.466-.737-3.455-3.9-2.34-10.154C30.8,48.89,26.831,55.623,21.418,54.3c-1.373-.33-3.544-3.312-3.56-7.651a39.868,39.868,0,0,1,2.374-13.268,6.762,6.762,0,0,1-2.27,1.155c-1.95,7-6.55,19.488-9.356,18.908-2.3-.464-3.784-9.1-.262-21.138,1.326-4.509,5.1-15.116,9.4-13.778,3.569,1.106,2.062,8.3.853,13.394,2.948-.846,5.328-5.764,6.383-7.643,1.083-1.946,6.866-11.67,12.511-9,1.91.892,2.487,3.658,1.846,6.6-1.008,4.537-3.278,8.932-5.394,7.287-1.891-1.485-.279-7.53,3.463-7.834.362-.846.478-2.369-.51-2.934-2.629-1.529-8.114,7.269-10.077,11.781-2.29,5.225-5.632,15.988-2.1,18.5,3.792,2.689,10.6-10.4,14.025-16.534S52.822,5.639,60.609,15.226a6.2,6.2,0,0,0,.79-1.652h7.74S54.892,43.3,54.547,44.211c-.548,1.467-.133,2.263.265,2.421,1.108.472,5.543-2.751,11.174-12.685h2.677c-4.378,7.816-10.344,15.882-14.616,19.176a8.583,8.583,0,0,1-4.682,1.928A3.2,3.2,0,0,1,47.98,54.759Zm-37.3-7.532c1.411,0,4.079-6.426,5.657-12.812a5.452,5.452,0,0,1-3.63-3.537C8.9,42.819,10.1,47.227,10.681,47.227Zm41.61-25.593c-3.737,5.493-7.425,11.935-8.925,15.8-1.922,4.864-2.652,9.223-.919,9.641,1.857.446,4.608-3.666,6.175-6.6,1.824-3.385,10.654-22.489,10.654-22.489A1.3,1.3,0,0,0,57.968,16.8C56.658,16.8,54.555,18.31,52.291,21.634ZM14.017,29.566a3.424,3.424,0,0,0,2.992,2.5c.932-3.63,2.176-9.708.37-10.193a.4.4,0,0,0-.106-.014C16.23,21.858,13.517,25.339,14.017,29.566Zm57.057-8.674L74.7,13.579h7.1l-3.608,7.313ZM136.4,19.654c.63-2.462,1.262-4.751,1.857-6.769,4.109-.08,6.934-3.978,8.8-10.487-.675,4.952-2,17.272-10.165,17.271C136.736,19.669,136.57,19.664,136.4,19.654Z" transform="translate(3.84 240.533)" fill="#f40000"/>
</svg>
