<svg xmlns="http://www.w3.org/2000/svg" width="40" height="40" viewBox="0 0 40 40">
  <g id="Group_175749" data-name="Group 175749" transform="translate(-1384 -1249)">
    <path id="Path_103837" data-name="Path 103837" d="M40,20A20,20,0,1,0,20,40,20,20,0,0,0,40,20" transform="translate(1384 1249)" fill="#f40000"/>
    <path id="Union_16" data-name="Union 16" d="M12.714,10.419a1.752,1.752,0,0,0-1.393.755A2.757,2.757,0,0,0,8.7,9.967c-2.141.025-4.266,1.012-5.948,1.012A2.571,2.571,0,0,1,0,8.169C.069,5.016,2.737,2.175,4.732.9A4.492,4.492,0,0,1,7.467.012a.915.915,0,0,1,.662,1.357c-.51,1.141-1.215,1.045-1.19.5a.9.9,0,0,1,.428-.7.867.867,0,0,1,.416-.1c.1-.085.178-.709-.644-.5A6.6,6.6,0,0,0,4.386,2.615,11.232,11.232,0,0,0,1.614,7.686c-.168.958-.055,2.7,2.217,2.682,1.926-.017,4.77-1.284,7.382-1.261a4.988,4.988,0,0,1,2.584.705,7.138,7.138,0,0,1,1.776,1.437A4.723,4.723,0,0,0,12.714,10.419Zm17.713.568C29.8,10.915,30,10.1,30,10.1s-.9.95-1.513.882c-.834-.092-.581-1.122-.581-1.122s-.943,1.159-1.586,1.122c-1.009-.058-.756-1.287-.476-2.146.15-.46.289-.824.289-.824s-.1.026-.315.058c-.112.016-.317.027-.317.027a13.7,13.7,0,0,1-.754,1.186c-.336.445-1.764,1.977-2.6,1.671-.776-.283-.521-1.471-.068-2.415.66-1.375,2.515-3.353,3.586-3.094,1.11.268.026,2.291.026,2.291s0,.008.012.012a.459.459,0,0,0,.214-.011,2.29,2.29,0,0,0,.406-.121,23.534,23.534,0,0,1,2.347-3.859C29.9,2.226,32.353-.4,33.32.233c.236.155.129.694-.189,1.348-.14.044-.286.083-.436.114a3.517,3.517,0,0,0,.4-.937c.144-.789-1.7.874-3.017,2.663a24.761,24.761,0,0,0-2.107,3.409,5.65,5.65,0,0,0,.68-.483A19.743,19.743,0,0,0,30.32,4.787a18.266,18.266,0,0,0,1.424-1.642,3.937,3.937,0,0,0,.419-.043,18.1,18.1,0,0,1-1.571,1.854c-.524.53-1.094,1.1-1.589,1.518A13.139,13.139,0,0,1,27.61,7.51s-1.155,2.319-.527,2.468c.368.088,1.1-1.032,1.1-1.032a25.707,25.707,0,0,1,1.521-2.1c.781-.887,1.453-1.4,2.124-1.411a.8.8,0,0,1,.623.41l.184-.284h1.134S31.65,9.15,31.482,9.42c-.153.245-.326.711.178.42A7.154,7.154,0,0,0,33.149,8.16h.395a13.215,13.215,0,0,1-1.2,1.575c-.594.657-1.312,1.257-1.841,1.257A.651.651,0,0,1,30.427,10.987Zm.588-4.258a9.388,9.388,0,0,0-1.331,1.888c-.359.655-.5,1.143-.3,1.268a.306.306,0,0,0,.217.022c.14-.034.3-.164.54-.442.113-.13.238-.315.388-.52.412-.564,1.453-2.34,1.66-2.7a.4.4,0,0,0,.034-.076.185.185,0,0,0-.169-.161H32.02C31.847,6.011,31.6,6.082,31.015,6.73Zm-6.857.484c-.011.015-.057.056-.462.649s-1.025,1.818-.462,2.026c.36.133.959-.5,1.286-.914a7.755,7.755,0,0,0,.6-.916c.016-.035,0-.044-.019-.051a2.356,2.356,0,0,1-.521-.332A1.692,1.692,0,0,1,24.19,7.2c0-.006-.007-.009-.01-.009S24.165,7.2,24.158,7.213Zm.42-.388a.933.933,0,0,0,.664.835c.074.02.1.017.135-.042a4.671,4.671,0,0,0,.3-.611c.1-.273.237-.81-.04-1.019a.287.287,0,0,0-.177-.053A1.039,1.039,0,0,0,24.577,6.825Zm8,4.092a.406.406,0,0,1-.152-.148.409.409,0,0,1,0-.411.4.4,0,0,1,.152-.149.452.452,0,0,1,.431,0,.406.406,0,0,1,.152.149.409.409,0,0,1,0,.411.408.408,0,0,1-.152.148.452.452,0,0,1-.431,0Zm.043-.64a.3.3,0,0,0-.119.118.36.36,0,0,0,0,.337.3.3,0,0,0,.118.118.374.374,0,0,0,.347,0,.3.3,0,0,0,.118-.118.358.358,0,0,0,0-.337.3.3,0,0,0-.119-.118.37.37,0,0,0-.345,0ZM17.744,5.373C20.217,1.42,23.123.207,24.066.072s1.249.28,1.249.28a4.052,4.052,0,0,1,1.793-.3c1.152.078,2.043.891,3.218,1.462-.307.3-.6.6-.861.889-.871-.445-1.507-.989-2.169-1.328a2.479,2.479,0,0,0-1.551-.39,1.525,1.525,0,0,0-.211.052s.264.9-.782,2.4c-1.059,1.527-2.021,1.519-2.294,1.1-.286-.443.082-1.346.7-2.149A7.743,7.743,0,0,1,24.939.552s-.363-.22-1.252.283a12.5,12.5,0,0,0-3.744,3.624,9.988,9.988,0,0,0-1.858,3.9c-.2.852-.017,1.764.93,1.764s2.048-1.442,2.358-1.944c.577-.933.954-2.365.168-2.168a1.647,1.647,0,0,0-.9.938,3.969,3.969,0,0,0-.285.828,3.267,3.267,0,0,0-.767.445,5.7,5.7,0,0,0-.726.642,4.542,4.542,0,0,1,.546-1.783,2.914,2.914,0,0,1,2.107-1.654c.51-.042,1.173.39.612,1.985s-2.218,3.528-3.96,3.554h-.027C16.55,10.971,15.521,8.926,17.744,5.373Zm5.974-3.387c-.786.865-1.239,1.832-.9,2.089.129.1.428.115.972-.373a4.29,4.29,0,0,0,1.148-1.59A2.167,2.167,0,0,0,25.175.856,4.462,4.462,0,0,0,23.718,1.986Zm9.176,8.759-.087-.135h-.072v.135h-.095v-.37h.215a.113.113,0,0,1,.086.034.116.116,0,0,1,.032.083.122.122,0,0,1-.018.065.111.111,0,0,1-.051.044l.1.144Zm-.159-.217h.1a.04.04,0,0,0,.028-.01.034.034,0,0,0,.011-.026.033.033,0,0,0-.011-.026.039.039,0,0,0-.028-.01h-.1Zm-24.4-2.3c-1.162-.447-.56-1.937-.339-2.384.187-.378.394-.746.394-.746s-.178.051-.289.076-.279.058-.279.058-.55.892-.885,1.337S5.172,8.545,4.33,8.239,3.7,6.76,4.169,5.826c.766-1.514,2.585-3.374,3.679-3.1S8.04,4.8,8.04,4.8s.22.028.748-.331c.761-.517,1.761-1.91,2.847-1.747.51.076.985.6.336,1.59-.208.318-.557.6-.824.322-.166-.174-.021-.494.153-.712a.688.688,0,0,1,.586-.267s.178-.411-.276-.4c-.37.007-1.3.866-1.831,1.734-.484.8-1.216,2.155-.48,2.451.676.271,1.959-1.251,2.554-2.048s1.948-2.606,3.085-2.68a.758.758,0,0,1,.625.331l.132-.208h1.134S14.687,6.4,14.519,6.674c-.132.212-.306.687.178.42a9.094,9.094,0,0,0,1.492-1.561h.4s-1.979,2.856-3.1,2.727c-.625-.072-.44-.842-.44-.842s-.878,1.025-1.68.821c-.731-.187-.26-1.4-.26-1.4-.074.03-1.343,1.453-2.4,1.453A1.023,1.023,0,0,1,8.333,8.227Zm5.789-4.193a13.569,13.569,0,0,0-1.358,1.9c-.359.655-.516,1.118-.31,1.242a.3.3,0,0,0,.217.022,1.3,1.3,0,0,0,.552-.446c.113-.13.241-.3.391-.509.458-.628,1.723-2.827,1.723-2.827a.185.185,0,0,0-.169-.161h-.026C14.965,3.257,14.676,3.344,14.122,4.034Zm-7.779.421c-.011.016-.071.092-.476.686S4.862,6.95,5.424,7.158c.36.133.965-.5,1.292-.916A10.551,10.551,0,0,0,7.4,5.223c.016-.035,0-.044-.018-.051A2.52,2.52,0,0,1,6.793,4.9a1.242,1.242,0,0,1-.418-.461c0-.006-.007-.009-.011-.009S6.35,4.445,6.343,4.455Zm.425-.341c0,.551.685.708.774.712a.1.1,0,0,0,.109-.044,4.8,4.8,0,0,0,.218-.487c.1-.274.237-.81-.04-1.019a.287.287,0,0,0-.176-.053A1.039,1.039,0,0,0,6.768,4.114Zm10.264-.288.608-.985h1.079l-.609.985Zm13.8-.931c.288-.351.576-.671.844-.949a4.917,4.917,0,0,0,2.963-.873A7.152,7.152,0,0,0,35.937,0a5.743,5.743,0,0,1-.8,1.145,5.072,5.072,0,0,1-3.6,1.815A3.648,3.648,0,0,1,30.83,2.895Z" transform="translate(1386.188 1263.063)" fill="#fff"/>
  </g>
</svg>
